<svg width="294" height="266" viewBox="0 0 294 266" fill="none" xmlns="http://www.w3.org/2000/svg">
<g filter="url(#filter0_d_101_401)">
<path d="M147.113 216.102C206.788 216.102 255.164 167.726 255.164 108.051C255.164 48.3761 206.788 0 147.113 0C87.4377 0 39.0615 48.3761 39.0615 108.051C39.0615 167.726 87.4377 216.102 147.113 216.102Z" fill="white"/>
<path d="M113.673 184.58C111.489 181.668 108.749 179.299 105.453 177.446C102.144 175.606 98.2132 174.68 93.6203 174.68H88.326C86.5921 174.68 84.8847 174.786 83.2037 175.011C85.9965 167.4 88.6569 160.041 91.1717 152.933C93.6865 145.826 95.9234 139.446 97.8823 133.794C99.8412 128.143 101.469 123.444 102.753 119.698C104.037 115.952 104.844 113.636 105.188 112.736C105.864 111.28 105.162 109.546 103.097 107.534C101.019 105.522 98.5308 103.616 95.6322 101.83C92.7203 100.043 89.9011 98.5074 87.1612 97.2103C84.4214 95.9264 82.7669 95.2778 82.211 95.2778C81.4301 96.6147 80.583 98.0706 79.6962 99.6457C78.9153 101.102 77.9623 102.783 76.8373 104.675C75.7122 106.581 74.5474 108.646 73.3165 110.883C71.5297 108.977 69.1472 107.164 66.1824 105.43C63.2175 103.696 60.0806 102.187 56.7849 100.903C53.4892 99.6192 50.3258 98.5868 47.308 97.7926C44.2902 97.0117 41.7622 96.6147 39.7503 96.6147C38.4135 96.6147 36.812 97.5147 34.9722 99.3015C33.1324 101.088 31.2 103.471 29.1749 106.436C27.163 109.401 25.1512 112.815 23.1261 116.68C21.1142 120.545 19.3274 124.489 17.7523 128.513C16.1905 132.537 14.8934 136.547 13.8874 140.518C12.8815 144.489 12.3786 148.102 12.3786 151.345C12.3786 153.251 13.583 155.342 15.9919 157.632C18.4009 159.922 21.2466 162.106 24.5556 164.184C27.8513 166.262 31.2397 168.155 34.7075 169.888C38.1753 171.622 41.0342 172.933 43.2711 173.833C44.3829 174.508 45.5079 174.839 46.633 174.839C47.4139 174.839 48.764 173.502 50.6567 170.815C52.5627 168.128 54.7731 164.66 57.2879 160.412C59.8027 156.163 62.5425 151.371 65.5073 146.064C68.4722 140.756 71.4105 135.462 74.3224 130.207C72.0856 137.712 69.5443 145.587 66.6853 153.873C63.8264 162.159 60.8351 170.431 57.7114 178.717C49.6508 180.623 42.3181 183.085 35.7266 186.102C29.1219 189.12 23.4702 192.482 18.7715 196.175C14.0727 199.868 10.4329 203.759 7.86512 207.836C5.29736 211.926 4.00024 216.029 4.00024 220.172C4.00024 228.113 5.15176 234.493 7.44157 239.311C9.73138 244.115 12.5903 247.874 16.0052 250.561C19.42 253.248 23.0599 255.035 26.9115 255.935C30.7764 256.835 34.2707 257.272 37.4076 257.272C39.8695 257.272 42.6093 255.617 45.6271 252.321C48.6448 249.026 51.7553 244.631 54.9451 239.152C58.135 233.672 61.3778 227.319 64.6867 220.105C67.9825 212.892 71.2517 205.308 74.5077 197.366C80.7683 197.472 86.0362 198.266 90.2849 199.722C94.5336 201.178 97.9485 203.018 100.529 205.268C103.097 207.505 104.924 209.993 105.983 212.733C107.042 215.473 107.584 218.08 107.584 220.542C107.584 221.548 108.233 221.627 109.517 220.794C110.801 219.96 112.256 218.663 113.884 216.929C115.499 215.195 116.968 213.262 118.252 211.131C119.536 209 120.185 207.161 120.185 205.586C120.185 201.893 119.655 198.2 118.583 194.507C117.524 190.814 115.896 187.519 113.712 184.607L113.673 184.58ZM63.9058 126.673C61.4439 130.697 59.035 134.588 56.6923 138.334C54.3495 142.08 52.0729 145.614 49.889 148.91C47.7051 152.205 45.7462 154.919 44.0123 157.05C42.2784 159.181 40.9019 160.637 39.8959 161.417C38.89 162.198 38.3341 161.973 38.215 160.742C38.5459 158.506 39.2209 155.792 40.2268 152.602C41.2328 149.413 42.4372 146.051 43.8402 142.53C45.2432 139.009 46.7786 135.541 48.4595 132.126C50.1405 128.712 51.9009 125.641 53.7407 122.901C55.5804 120.161 57.4599 117.951 59.3659 116.27C61.2719 114.589 63.0587 113.755 64.7397 113.755C65.9706 113.755 67.0559 113.901 68.0089 114.179C68.9619 114.457 69.8752 114.761 70.7752 115.105C68.6442 118.798 66.3544 122.663 63.8926 126.687L63.9058 126.673ZM42.0799 217.061C39.843 222.038 37.8047 226.353 35.9516 229.979C34.1119 233.619 32.4309 236.465 30.922 238.543C29.4131 240.608 28.2616 241.653 27.4807 241.653C27.2557 241.653 26.9512 241.481 26.5542 241.15C26.1571 240.819 25.7733 240.065 25.3762 238.887C24.9791 237.709 24.6482 236.002 24.3703 233.765C24.0923 231.528 23.9467 228.444 23.9467 224.539C23.9467 219.391 26.263 214.745 30.9088 210.602C35.5546 206.459 41.5637 203.216 48.9493 200.86C46.5933 206.684 44.3035 212.071 42.0666 217.061H42.0799Z" fill="#FF8C1E"/>
<path d="M153.963 125.323C154.439 124.185 154.916 123.02 155.392 121.882L125.678 161.417C126.578 155.819 127.941 150.061 129.794 144.131C131.634 138.202 133.566 132.629 135.591 127.428C137.603 122.226 139.509 117.699 141.296 113.834C143.083 109.97 144.314 107.256 144.989 105.694C145.439 104.794 145.214 103.736 144.314 102.505C143.414 101.274 142.183 100.016 140.621 98.7324C139.059 97.4485 137.259 96.1911 135.247 94.9601C133.235 93.7292 131.303 92.6439 129.45 91.6909C127.597 90.7379 125.982 89.957 124.579 89.3349C123.176 88.726 122.316 88.4084 121.972 88.4084C121.972 88.8584 121.416 90.3938 120.291 93.0277C119.166 95.6616 117.776 98.9574 116.095 102.928C114.414 106.899 112.574 111.32 110.562 116.19C108.551 121.061 106.698 125.959 105.03 130.882C103.349 135.806 101.959 140.558 100.834 145.151C99.7222 149.743 99.1531 153.661 99.1531 156.904C99.1531 158.585 100.133 160.491 102.091 162.609C104.05 164.74 106.367 166.804 109.054 168.816C111.74 170.828 114.454 172.615 117.194 174.19C119.933 175.752 122.091 176.824 123.653 177.38C124.553 177.936 125.413 178.439 126.26 178.889C127.094 179.339 127.968 179.564 128.854 179.564C129.185 179.564 130.006 178.756 131.29 177.128C132.574 175.5 134.175 173.356 136.068 170.669C137.908 168.075 139.933 165.124 142.156 161.841C142.58 158.175 143.652 153.674 145.386 148.354C147.676 141.299 150.535 133.635 153.95 125.363L153.963 125.323Z" fill="#FF8C1E"/>
<path d="M128.867 76.5755C131.223 78.5344 133.844 80.2948 136.756 81.8567C139.668 83.4317 142.487 84.6891 145.227 85.6289C147.967 86.5819 149.727 87.0584 150.521 87.0584C150.521 85.8274 150.852 84.12 151.527 81.9361C152.202 79.7522 153.036 77.4359 154.042 74.974C155.048 72.5121 156.107 70.0238 157.232 67.509C158.344 64.9942 159.35 62.7308 160.25 60.7057C160.7 59.8057 160.475 58.7468 159.575 57.5159C158.675 56.2849 157.444 55.0275 155.882 53.7437C154.32 52.4598 152.52 51.2024 150.508 49.9714C148.496 48.7405 146.564 47.6552 144.711 46.7022C142.858 45.7492 141.243 44.9683 139.84 44.3462C138.437 43.7373 137.577 43.4197 137.232 43.4197C137.232 44.2006 136.61 45.6301 135.393 47.6949C134.162 49.7729 132.785 52.1421 131.276 54.829C129.767 57.5159 128.391 60.2822 127.16 63.1411C125.929 66.0001 125.307 68.5414 125.307 70.7782C125.307 72.6842 126.485 74.6166 128.828 76.5755H128.867Z" fill="#FF8C1E"/>
<path d="M232.597 99.3148C231.26 97.0779 229.685 95.066 227.898 93.2792C226.111 91.4923 224.205 90.5923 222.194 90.5923C220.288 90.5923 217.826 91.5718 214.808 93.5307C211.79 95.4896 208.455 98.097 204.828 101.34C201.188 104.583 197.443 108.328 193.578 112.59C189.713 116.839 185.941 121.207 182.248 125.681C185.266 118.97 188.376 112.339 191.566 105.787C194.756 99.2353 197.668 93.2792 200.288 87.9054C202.922 82.5317 205.066 78.005 206.747 74.3122C208.428 70.6194 209.262 68.2634 209.262 67.2575C209.262 65.0206 208.111 62.8102 205.821 60.6263C203.531 58.4424 200.95 56.5099 198.104 54.829C195.245 53.148 192.506 51.7847 189.885 50.7126C187.251 49.6538 185.61 49.1111 184.935 49.1111C185.61 50.117 184.988 53.0818 183.095 58.0056C181.189 62.9293 178.648 69.0046 175.458 76.2182C172.268 83.4317 168.747 91.36 164.882 99.9633C161.56 107.389 158.397 114.682 155.405 121.855L161.772 113.384C162.884 111.823 163.903 111.028 164.79 111.028C165.571 111.028 166.272 111.783 166.881 113.292C167.49 114.801 167.807 117.858 167.807 122.438C160.978 133.066 154.823 142.583 149.343 150.974C146.987 154.561 144.671 158.056 142.381 161.47C142.315 161.576 142.236 161.682 142.17 161.788C142.037 162.966 141.958 164.078 141.958 165.084C141.958 167.44 143.162 169.756 145.571 172.046C147.98 174.336 150.72 176.387 153.791 178.174C156.861 179.961 159.853 181.417 162.765 182.542C165.676 183.654 167.569 184.223 168.469 184.223C168.363 183.998 168.297 183.773 168.297 183.548C168.297 183.323 168.271 183.098 168.218 182.873C168.165 182.648 168.138 182.317 168.138 181.867C168.694 180.53 169.541 178.558 170.653 175.99C171.765 173.409 173.009 170.762 174.346 168.022C175.683 165.282 177.059 162.675 178.462 160.213C179.865 157.751 181.123 155.964 182.235 154.839C184.591 166.368 187.714 176.599 191.632 185.56C193.313 189.358 195.245 193.117 197.429 196.81C199.613 200.503 202.075 203.772 204.815 206.631C207.555 209.49 210.573 211.78 213.882 213.514C217.177 215.248 220.791 216.108 224.708 216.108C227.501 216.108 230.135 215.407 232.597 214.017C235.059 212.614 237.124 211.052 238.805 209.318C240.486 207.584 241.624 206.022 242.246 204.619C242.855 203.216 242.722 202.528 241.822 202.528C238.911 202.528 235.747 201.297 232.332 198.835C228.917 196.373 225.556 193.184 222.26 189.266C218.964 185.348 215.774 181.007 212.69 176.255C209.606 171.503 206.866 166.804 204.471 162.159C202.062 157.513 200.169 153.238 198.766 149.32C197.363 145.402 196.675 142.331 196.675 140.081C198.806 136.838 201.704 133.424 205.397 129.837C208.534 126.819 212.664 123.378 217.813 119.513C222.551 115.952 228.388 112.379 235.31 108.778C235.668 107.931 236.012 107.097 236.356 106.277C235.138 103.762 233.881 101.419 232.584 99.2883L232.597 99.3148Z" fill="#FF8C1E"/>
<path d="M149.343 151.014C154.823 142.623 160.978 133.106 167.807 122.478C167.807 117.885 167.503 114.84 166.881 113.332C166.259 111.823 165.557 111.068 164.789 111.068C163.889 111.068 162.884 111.849 161.772 113.424L155.405 121.895C154.929 123.047 154.439 124.198 153.976 125.337C150.561 133.622 147.715 141.286 145.412 148.327C143.678 153.661 142.606 158.148 142.183 161.815C142.249 161.709 142.328 161.603 142.394 161.497C144.684 158.082 147.014 154.588 149.356 151.001L149.343 151.014Z" fill="#FF8C1E"/>
<path d="M250.558 76.5755C252.914 78.5344 255.535 80.2948 258.447 81.8567C261.359 83.4317 264.178 84.6891 266.918 85.6289C269.658 86.5819 271.418 87.0584 272.212 87.0584C272.212 85.8274 272.543 84.12 273.218 81.9361C273.893 79.7522 274.727 77.4359 275.733 74.974C276.739 72.5121 277.798 70.0238 278.923 67.509C280.035 64.9942 281.04 62.7308 281.94 60.7057C282.391 59.8057 282.166 58.7468 281.265 57.5159C280.365 56.2849 279.134 55.0275 277.573 53.7437C276.011 52.4598 274.211 51.2024 272.199 49.9714C270.187 48.7405 268.255 47.6552 266.402 46.7022C264.549 45.7492 262.934 44.9683 261.531 44.3462C260.128 43.7373 259.267 43.4197 258.923 43.4197C258.923 44.2006 258.301 45.6301 257.084 47.6949C255.853 49.7729 254.476 52.1421 252.967 54.829C251.458 57.5159 250.082 60.2822 248.851 63.1411C247.62 66.0001 246.998 68.5414 246.998 70.7782C246.998 72.6842 248.176 74.6166 250.519 76.5755H250.558Z" fill="#FF8C1E"/>
<path d="M288.571 113.332C287.949 111.823 287.248 111.068 286.48 111.068C285.58 111.068 284.574 111.849 283.462 113.424L247.381 161.431C248.281 155.832 249.645 150.074 251.498 144.145C253.338 138.215 255.27 132.643 257.295 127.441C259.307 122.239 261.213 117.713 263 113.848C264.787 109.983 266.018 107.27 266.693 105.708C267.143 104.808 266.918 103.749 266.018 102.518C265.118 101.287 263.887 100.029 262.325 98.7456C260.763 97.4617 258.963 96.2043 256.951 94.9734C254.939 93.7425 253.007 92.6571 251.154 91.7041C249.301 90.7511 247.686 89.9702 246.283 89.3481C244.88 88.7393 244.02 88.4216 243.675 88.4216C243.675 88.8717 243.119 90.407 241.994 93.041C240.869 95.6749 239.48 98.9706 237.799 102.941C237.335 104.027 236.859 105.165 236.369 106.317C236.621 106.833 236.872 107.349 237.124 107.892C236.515 108.209 235.919 108.514 235.324 108.818C234.344 111.148 233.325 113.609 232.253 116.19C230.241 121.061 228.388 125.959 226.72 130.882C225.039 135.806 223.65 140.558 222.524 145.151C221.413 149.743 220.844 153.661 220.844 156.904C220.844 158.585 221.823 160.491 223.782 162.609C225.741 164.74 228.057 166.804 230.744 168.816C233.431 170.828 236.144 172.615 238.884 174.19C241.624 175.752 243.781 176.824 245.343 177.38C246.243 177.936 247.103 178.439 247.951 178.889C248.784 179.339 249.658 179.564 250.545 179.564C250.876 179.564 251.696 178.756 252.98 177.128C254.264 175.5 255.866 173.356 257.758 170.669C259.664 167.982 261.756 164.938 264.059 161.523C266.348 158.109 268.678 154.614 271.021 151.027C276.5 142.636 282.655 133.119 289.485 122.491C289.485 117.898 289.18 114.854 288.558 113.345L288.571 113.332Z" fill="#FF8C1E"/>
<path d="M236.369 106.303C236.025 107.124 235.681 107.958 235.323 108.805C235.919 108.501 236.515 108.183 237.124 107.878C236.872 107.349 236.621 106.833 236.369 106.303Z" fill="#FF8C1E"/>
</g>
<defs>
<filter id="filter0_d_101_401" x="0.000244141" y="0" width="293.485" height="265.272" filterUnits="userSpaceOnUse" color-interpolation-filters="sRGB">
<feFlood flood-opacity="0" result="BackgroundImageFix"/>
<feColorMatrix in="SourceAlpha" type="matrix" values="0 0 0 0 0 0 0 0 0 0 0 0 0 0 0 0 0 0 127 0" result="hardAlpha"/>
<feOffset dy="4"/>
<feGaussianBlur stdDeviation="2"/>
<feComposite in2="hardAlpha" operator="out"/>
<feColorMatrix type="matrix" values="0 0 0 0 0 0 0 0 0 0 0 0 0 0 0 0 0 0 0.25 0"/>
<feBlend mode="normal" in2="BackgroundImageFix" result="effect1_dropShadow_101_401"/>
<feBlend mode="normal" in="SourceGraphic" in2="effect1_dropShadow_101_401" result="shape"/>
</filter>
</defs>
</svg>
